<svg width="200" height="60" viewBox="0 0 200 60" xmlns="http://www.w3.org/2000/svg">
  <!-- Logo Symbol (Wing/Bat shape) -->
  <path d="M10 15 C10 5, 20 5, 25 10 C30 15, 35 20, 40 25 C45 30, 50 35, 55 30 C60 25, 65 20, 70 15 C75 10, 80 5, 85 10 C90 15, 95 20, 100 25 C105 30, 110 35, 115 30 C120 25, 125 20, 130 15 C135 10, 140 5, 145 10 C150 15, 155 20, 160 25 C165 30, 170 35, 175 30 C180 25, 185 20, 190 15 C195 10, 200 5, 200 15 C200 25, 195 30, 190 35 C185 40, 180 45, 175 50 C170 55, 165 60, 160 55 C155 50, 150 45, 145 40 C140 35, 135 30, 130 25 C125 20, 120 15, 115 10 C110 5, 105 10, 100 15 C95 20, 90 25, 85 30 C80 35, 75 40, 70 35 C65 30, 60 25, 55 20 C50 15, 45 10, 40 5 C35 0, 30 5, 25 10 C20 15, 15 20, 10 25 C5 30, 0 35, 0 25 C0 15, 5 10, 10 15 Z" 
        fill="#4A148C" 
        transform="scale(0.3) translate(0, 10)"/>
  
  <!-- Text "RougeResume" -->
  <text x="95" y="40" 
        font-family="Arial, sans-serif" 
        font-size="18" 
        font-weight="bold" 
        fill="#1A1A2E"
        style="text-shadow: 0 0 1px rgba(255,0,0,0.3), 0 0 1px rgba(0,0,255,0.3);">
    RougeResume
  </text>
</svg>
